<svg xmlns="http://www.w3.org/2000/svg" viewBox="0 0 349.89 324.11">
  <defs>
    <style>
      .layer {
        fill:#131718;
      }
    </style>
  </defs>
  <title>njuko</title>
  <g id="Calque_2" data-name="Calque 2">
  <g id="Calque_1-2" data-name="Calque 1">
    <path class="layer layer1" d="M22.17,324.11A22.19,22.19,0,0,1,1,295.52l76.57-253A59.51,59.51,0,0,1,134.82,0H175a22.16,22.16,0,0,1,22.16,22.16v88.29a22.16,22.16,0,0,1-44.32,0V44.33h-18a15.44,15.44,0,0,0-14.87,11l-76.58,253A22.16,22.16,0,0,1,22.17,324.11Z"/>
    <path class="layer layer2" d="M215.08,324.1H175a22.16,22.16,0,0,1-22.16-22.16V213.65a22.16,22.16,0,0,1,44.32,0v66.13h18a15.43,15.43,0,0,0,14.86-11l76.58-253a22.16,22.16,0,0,1,42.42,12.84l-76.58,253A59.51,59.51,0,0,1,215.08,324.1Z"/>
  </g>
</g>
</svg>
