<svg id="Layer_1" data-name="Layer 1" xmlns="http://www.w3.org/2000/svg" viewBox="0 0 1921 1081.09"><defs><style>.cls-1{fill:#545454;stroke:#fff;stroke-miterlimit:10;}.cls-2,.cls-4{fill:#fff;}.cls-3{fill:#4b4f50;}.cls-4{font-size:266.42px;font-family:MyriadPro-Regular, Myriad Pro;}</style></defs><title>logo-rectangle</title><rect class="cls-1" x="0.5" y="0.5" width="1920" height="1080.09"/><path class="cls-2" d="M1101.28,363.39a158.38,158.38,0,0,0-35.83,4.09c-28.26,6.57-50.88,18.46-69.56,41.23-14.95,18.23-32.71,46.13-36.91,69.43,10-55.44,24.71-100,24.78-157C989.39,342,990,364,993.14,385.6a29.27,29.27,0,0,0,5.64-2.14c10.76-55.42-24.62-127.23-25.16-167.21,16.4-2.65,31.66,10.23,43.5,8.16,18.58-3.23,18.34-13.39,33.89-19.07,20.74-7.6,33.22-4.46,53.48-30.15-8.27-18-27.07-15.62-42.49-9.18-12.88,5.39-23.55,3.23-25.65-13.86-.85-7,1.45-18.12,11.28-16,8.24,1.78,9,14.48,10.12,21,7.4-4.39,23.91-11.59,33.22-8.65a12.8,12.8,0,0,1,2.45,1.09c1.72-1.69,3.39-3.28,4.9-4.52-23.64-17-39.13-49.74-78.68-67.83-38.79,17.92-97.49,39.51-116.2,71.33-13.5,22.91-18.67,66.47-29,93.63a1342.86,1342.86,0,0,1-64.53,144.22c-20.37,39-58.46,117-46,161.73,14.05,50.32,89.74,56.71,131,73.25,66.87,26.83,132.78,57.78,206.42,57.78a157.86,157.86,0,1,0,0-315.73Z" transform="translate(0.5 -0.46)"/><path class="cls-3" d="M822.71,486a52.92,52.92,0,0,0-3.39,16.52A42.56,42.56,0,0,0,822,519a49.69,49.69,0,0,0,8.55,14.29,72,72,0,0,0,12.28,11.4,109,109,0,0,0,30,15.25,123.16,123.16,0,0,0,16.39,4.28A101.55,101.55,0,0,0,906.11,566v.31a98.62,98.62,0,0,1-33.89-4.53,101.66,101.66,0,0,1-30.77-15.27,70.24,70.24,0,0,1-12.58-11.89,49.4,49.4,0,0,1-8.59-15.05,42.14,42.14,0,0,1-2.22-17.12,50.47,50.47,0,0,1,4.35-16.57Z" transform="translate(0.5 -0.46)"/><polygon class="cls-2" points="664.85 326.35 685.53 364.16 723.35 384.85 685.53 405.53 664.85 443.35 644.17 405.53 606.35 384.85 644.17 364.16 664.85 326.35"/><polygon class="cls-2" points="1354.24 466.1 1368.24 491.69 1393.83 505.69 1368.24 519.68 1354.24 545.28 1340.24 519.68 1314.65 505.69 1340.24 491.69 1354.24 466.1"/><polygon class="cls-2" points="566.76 505.69 580.76 531.28 606.35 545.28 580.76 559.28 566.76 584.87 552.76 559.28 527.17 545.28 552.76 531.28 566.76 505.69"/><polygon class="cls-2" points="1314.65 213.4 1335.33 251.21 1373.15 271.89 1335.33 292.58 1314.65 330.39 1293.97 292.58 1256.15 271.89 1293.97 251.21 1314.65 213.4"/><text class="cls-4" transform="translate(482.55 948.14)">BigHand</text></svg>