<svg id="Layer_1" data-name="Layer 1" xmlns="http://www.w3.org/2000/svg" viewBox="0 0 513 513"><defs><style>.cls-1{fill:#545454;stroke:#fff;stroke-miterlimit:10;}.cls-2{fill:#fff;}.cls-3{fill:#4b4f50;}</style></defs><title>logo</title><circle class="cls-1" cx="256.5" cy="256.5" r="256"/><path class="cls-2" d="M339.46,247.36a93.57,93.57,0,0,0-21.17,2.42c-16.7,3.88-30.06,10.91-41.09,24.36-8.83,10.77-19.32,27.25-21.8,41,5.9-32.75,14.6-59.07,14.64-92.77,3.33,12.33,3.67,25.33,5.54,38.1a17.29,17.29,0,0,0,3.33-1.26c6.36-32.74-14.55-75.17-14.86-98.78,9.69-1.57,18.71,6,25.7,4.82,11-1.91,10.83-7.91,20-11.27,12.26-4.49,19.63-2.63,31.59-17.81-4.88-10.66-16-9.23-25.1-5.42-7.61,3.19-13.91,1.91-15.15-8.19-.5-4.13.86-10.7,6.66-9.47,4.87,1.05,5.3,8.56,6,12.39,4.37-2.59,14.12-6.85,19.63-5.11a7.56,7.56,0,0,1,1.45.65c1-1,2-1.93,2.9-2.67-14-10.07-23.12-29.38-46.48-40.07-22.92,10.58-57.59,23.34-68.65,42.14-8,13.53-11,39.27-17.15,55.32a793.32,793.32,0,0,1-38.12,85.2c-12,23-34.53,69.13-27.16,95.54,8.3,29.72,53,33.5,77.37,43.27C257,415.6,296,433.88,339.46,433.88a93.26,93.26,0,1,0,0-186.52Z" transform="translate(0.5 0.42)"/><path class="cls-3" d="M175,319.83a31.78,31.78,0,0,0-1.8,9.75,25.25,25.25,0,0,0,1.7,9.56c2.38,6.07,7,11,12.24,14.92a66.15,66.15,0,0,0,17.55,9,76.07,76.07,0,0,0,9.6,2.64,63.22,63.22,0,0,0,9.93,1.29v.31A55.7,55.7,0,0,1,204,365a58.77,58.77,0,0,1-18.34-9,41.2,41.2,0,0,1-7.49-7.12,29.16,29.16,0,0,1-5.08-9,24.82,24.82,0,0,1-1.21-10.26,29.34,29.34,0,0,1,2.76-9.8Z" transform="translate(0.5 0.42)"/><polygon class="cls-2" points="81.84 226.17 94.06 248.51 116.4 260.73 94.06 272.95 81.84 295.29 69.62 272.95 47.28 260.73 69.62 248.51 81.84 226.17"/><polygon class="cls-2" points="489.11 308.73 497.38 323.85 512.5 332.12 497.38 340.39 489.11 355.51 480.84 340.39 465.72 332.12 480.84 323.85 489.11 308.73"/><polygon class="cls-2" points="23.89 332.12 32.16 347.24 47.28 355.51 32.16 363.78 23.89 378.9 15.62 363.78 0.5 355.51 15.62 347.24 23.89 332.12"/><polygon class="cls-2" points="465.72 159.44 477.94 181.78 500.28 194 477.94 206.22 465.72 228.56 453.5 206.22 431.16 194 453.5 181.78 465.72 159.44"/></svg>